<svg width="24" height="24" viewBox="0 0 24 24" fill="none" xmlns="http://www.w3.org/2000/svg">
<path d="M22 13.6633H13.6667V21.9967C13.6667 22.4387 13.4911 22.8626 13.1785 23.1752C12.8659 23.4877 12.442 23.6633 12 23.6633C11.558 23.6633 11.134 23.4877 10.8215 23.1752C10.5089 22.8626 10.3333 22.4387 10.3333 21.9967V13.6633H1.99999C1.55797 13.6633 1.13404 13.4877 0.821484 13.1752C0.508923 12.8626 0.333328 12.4387 0.333328 11.9967C0.333328 11.5546 0.508923 11.1307 0.821484 10.8181C1.13404 10.5056 1.55797 10.33 1.99999 10.33H10.3333V1.99665C10.3333 1.55463 10.5089 1.1307 10.8215 0.818141C11.134 0.505581 11.558 0.329987 12 0.329987C12.442 0.329987 12.8659 0.505581 13.1785 0.818141C13.4911 1.1307 13.6667 1.55463 13.6667 1.99665V10.33H22C22.442 10.33 22.8659 10.5056 23.1785 10.8181C23.4911 11.1307 23.6667 11.5546 23.6667 11.9967C23.6667 12.4387 23.4911 12.8626 23.1785 13.1752C22.8659 13.4877 22.442 13.6633 22 13.6633Z" fill="black"/>
</svg>
